<?xml version="1.0" encoding="UTF-8"?><svg xmlns="http://www.w3.org/2000/svg" xmlns:xlink="http://www.w3.org/1999/xlink" viewBox="0 0 50 50" version="1.1"><path d="M11.594 13.406C5.234 13.406 0 18.636 0 25c0 6.363 5.234 11.594 11.594 11.594 4.668 0 8.414-2.79 11-5.375A28.814 28.814 0 0 0 25 28.469c.652.84 1.43 1.773 2.406 2.75 2.586 2.586 6.332 5.375 11 5.375C44.766 36.594 50 31.364 50 25c0-6.363-5.23-11.594-11.594-11.594-4.668 0-8.414 2.79-11 5.375A28.815 28.815 0 0 0 25 21.531a27.465 27.465 0 0 0-2.344-2.718c-2.566-2.594-6.32-5.407-11.062-5.407zm0 4c3.117 0 6.043 2.02 8.219 4.219 1.359 1.371 2.214 2.508 2.78 3.344a23.96 23.96 0 0 1-2.843 3.406c-2.207 2.207-5.156 4.219-8.156 4.219C7.414 32.594 4 29.18 4 25s3.414-7.594 7.594-7.594zm26.812 0C42.586 17.406 46 20.82 46 25s-3.414 7.594-7.594 7.594c-3 0-5.949-2.012-8.156-4.219A23.593 23.593 0 0 1 27.437 25c.583-.84 1.438-2 2.813-3.375 2.207-2.207 5.156-4.219 8.156-4.219zM36 20v3h-3v4h3v3h4v-3h3v-4h-3v-3zM7 23v4h10v-4z" id="surface1"/><metadata><rdf:RDF xmlns:rdf="http://www.w3.org/1999/02/22-rdf-syntax-ns#" xmlns:rdfs="http://www.w3.org/2000/01/rdf-schema#" xmlns:dc="http://purl.org/dc/elements/1.1/"><rdf:Description about="https://iconscout.com/legal#licenses" dc:title="arduino,filled" dc:description="arduino,filled" dc:publisher="Iconscout" dc:date="2017-12-09" dc:format="image/svg+xml" dc:language="en"><dc:creator><rdf:Bag><rdf:li>Icons8</rdf:li></rdf:Bag></dc:creator></rdf:Description></rdf:RDF></metadata></svg>