<svg width="32" height="32" xmlns="http://www.w3.org/2000/svg">

 <metadata>Icons8</metadata>
 <g>
  <title>background</title>
  <rect fill="none" id="canvas_background" height="602" width="802" y="-1" x="-1"/>
 </g>
 <g>
  <title>Layer 1</title>
  <path stroke="null" id="surface1" d="m27.02336,14.47615l-0.2642,-0.36455c0,-2.91398 -1.45639,-4.01007 -3.05352,-4.86069c0.5337,-0.12395 1.06209,-0.24303 1.19751,-0.85062c0.928,-0.2406 1.06209,-0.60759 1.1922,-0.97214c0.26552,-0.12395 0.92933,-0.48364 0.92933,-1.21517c0.39828,-0.24303 0.66381,-0.60759 0.5337,-1.09122c0.39828,-0.48971 0.52839,-0.85548 0.39828,-1.21517c0.52972,-0.60759 0.26552,-0.97335 0.13011,-1.33912c0.39961,-0.73153 0,-1.45821 -1.06209,-1.33912c-0.3943,-0.60759 -1.45772,-0.48364 -1.59314,-0.48364c-0.12878,-0.24303 -0.39828,-0.36455 -1.06209,-0.24303c-0.66381,-0.36455 -1.19353,-0.36455 -1.72192,-0.12152c-0.66381,-0.48607 -1.06342,-0.11909 -1.46303,0c-0.79922,-0.24303 -0.92933,0.12152 -1.32762,0.2406c-0.79922,-0.11787 -1.06209,0.24789 -1.46303,0.60759l-0.39297,0c-1.19884,0.60759 -1.86265,2.07065 -2.12684,2.67824c-0.26552,-0.73153 -0.79922,-2.07065 -2.12684,-2.67824l-0.39297,0c-0.39961,-0.35969 -0.66381,-0.72546 -1.46303,-0.60759c-0.39828,-0.11787 -0.52839,-0.48364 -1.32762,-0.24182c-0.26552,-0.11787 -0.52839,-0.24182 -0.92933,-0.24182c-0.13276,0 -0.26287,0.12395 -0.5337,0.24303c-0.52839,-0.24303 -1.05678,-0.24303 -1.45639,0.12152c-0.66381,-0.12152 -0.92933,0.11909 -1.06342,0.24303c-0.13542,0 -1.1922,-0.12395 -1.59314,0.48364c-1.19751,-0.11787 -1.59048,0.60759 -1.19751,1.33912c-0.2642,0.36455 -0.39297,0.60759 0.13542,1.33912c-0.26552,0.24182 -0.13542,0.72546 0.39828,1.09122c-0.13276,0.48364 0,0.85062 0.53105,1.21517c-0.13011,0.60759 0.66381,0.97214 0.79657,1.21517c0.13011,0.36455 0.26552,0.73153 1.19485,0.97214c0.13276,0.60759 0.66381,0.72667 1.19751,0.85062c-1.72723,0.85062 -3.05484,2.06579 -3.05484,4.86069l-0.26552,0.36455c-1.86132,1.09365 -3.58855,4.49613 -0.93331,7.29103c0.13542,0.85062 0.39961,1.45821 0.66381,2.18974c0.39961,2.79003 2.92607,4.12915 3.58987,4.2531c0.928,0.72546 1.99142,1.33304 3.44782,1.82276c1.32762,1.21517 2.79065,1.69881 4.24837,1.69881c1.46171,0 2.92474,-0.48364 4.25235,-1.69881c1.45639,-0.48971 2.51981,-1.0973 3.44782,-1.82276c0.66381,-0.12395 3.19026,-1.46307 3.58456,-4.2531c0.26818,-0.73153 0.53237,-1.33912 0.7979,-2.18974c2.92075,-2.79611 1.1922,-6.19981 -0.79922,-7.29103zm-1.72059,-0.4885c-0.13542,1.21517 -6.5093,-4.00521 -5.44588,-4.12915c3.05352,-0.48364 5.57599,1.09122 5.44588,4.12915zm-7.03902,-12.02777c0,0.24303 0.12878,0.36455 0.12878,0.48364c0.39961,-0.35969 0.66381,-0.72546 1.06342,-1.09122c0,0.24303 -0.12878,0.36455 0.13542,0.60759c0.2642,-0.36455 0.52839,-0.60759 1.06209,-0.85062c-0.26951,0.36698 0,0.48607 0.13011,0.60759c0.39961,-0.2406 0.66381,-0.4885 1.32762,-0.7291c-0.12878,0.2406 -0.39828,0.36455 -0.12878,0.60759c0.39297,-0.24303 0.66381,-0.36698 1.59181,-0.60759c-0.13542,0.2406 -0.53503,0.36455 -0.39961,0.60759c0.39828,-0.11909 0.92933,-0.24303 1.46303,-0.36698c-0.27083,0.24789 -0.53503,0.36577 -0.27083,0.48971c0.53503,-0.12395 1.06342,-0.36577 1.72723,-0.12395l-0.39828,0.36577l1.59712,0c-0.27083,0.36455 -0.53503,0.60759 -0.66381,1.09122l0.66381,0c-0.27083,0.73153 -0.79922,0.85548 -0.93464,1.0973c0.13542,0.11787 0.39961,0.11787 0.79922,0c-0.26552,0.48364 -0.66381,0.72546 -1.06209,1.09122c0.13276,0.12395 0.26287,0.12395 0.66381,0c-0.40094,0.36577 -0.79391,0.60759 -1.19485,0.97335c0.13011,0.12395 0.40094,0.12395 0.66381,0.12395c-0.39828,0.35969 -1.06209,0.60759 -1.59048,0.8494c0.12878,0.24182 0.39297,0.11787 0.52839,0.11787c-0.39828,0.24789 -1.06209,0.48971 -1.59314,0.60759c0.13011,0.12395 0.26552,0.24789 0.53105,0.24789c-0.66381,0.35969 -1.59314,0.11787 -1.85866,0.35969c0,0.12395 0.26552,0.24789 0.40094,0.36577c-1.06342,0 -3.85407,0 -4.38246,-1.94063c1.06209,-1.0973 2.91943,-2.31247 6.23847,-3.89341c-2.51981,0.85548 -4.91218,1.82276 -6.7735,3.28582c-2.1202,-0.97335 -0.66381,-3.4037 0.53503,-4.37705zm-2.38971,7.04799c1.59314,0 3.58456,1.09365 3.58456,2.18974c0,0.96728 -1.45772,1.69881 -3.58456,1.69881s-3.58456,-0.97214 -3.58456,-1.82276s1.72856,-2.06579 3.58456,-2.06579zm-8.10111,-0.7291c0.27083,0 0.39961,-0.11909 0.53503,-0.24303c-0.66381,-0.24303 -1.32762,-0.36455 -1.72723,-0.73153c0.26552,0 0.39828,0 0.66381,-0.11787c-0.52839,-0.24303 -1.06209,-0.48971 -1.59314,-0.85062c0.26552,0 0.53105,0 0.66381,-0.12273c-0.39828,-0.24303 -0.79657,-0.60759 -1.19751,-0.85062l0.66381,0c-0.39297,-0.4885 -0.79259,-0.7291 -1.05678,-1.21517c0.2642,0.11909 0.52839,0.11909 0.79259,0c-0.12878,-0.2406 -0.79259,-0.36455 -1.06209,-0.97214l0.66381,0c-0.13011,-0.48364 -0.3943,-0.85062 -0.52972,-1.09122l1.59314,0l-0.40094,-0.48971c0.66381,-0.11787 1.32762,0 1.72723,0.12395c0.26552,-0.12395 0,-0.36577 -0.2642,-0.48971c0.52839,0.12395 1.06209,0.24789 1.46303,0.36577c0.2642,-0.24182 -0.13542,-0.36455 -0.39961,-0.60759c0.928,0.12395 1.1922,0.36577 1.59181,0.60759c0.26552,-0.24182 0,-0.36455 -0.13542,-0.60759c0.66381,0.24303 0.93464,0.48971 1.32762,0.73153c0.13542,-0.12395 0.27083,-0.24303 0.13542,-0.60759c0.26552,0.24182 0.66381,0.48364 0.92933,0.8494c0.26287,-0.12395 0.13276,-0.36455 0.13276,-0.60759c0.40094,0.36455 0.79391,0.73153 1.06475,1.09122c0.12878,0 0.12878,-0.24182 0.12878,-0.48364c1.06342,0.97214 2.65523,3.40248 0.39961,4.37705c-1.85601,-1.46307 -4.24837,-2.55429 -6.7735,-3.28582c3.31904,1.58094 5.18168,2.79611 6.24511,3.89341c-0.53503,1.94063 -3.31904,2.06458 -4.38246,1.94063c0.2642,-0.11787 0.39828,-0.24182 0.39828,-0.36455c-0.13409,-0.11909 -0.93331,0 -1.59712,-0.24303l0,0.00122zm3.71865,1.45578c1.06342,0.12395 -5.31046,5.3504 -5.43924,4.13523c-0.13542,-2.92006 2.3844,-4.61887 5.43924,-4.13523zm-6.76686,11.54413c-1.59845,-1.21517 -2.12684,-4.49492 0.79259,-6.07586c1.72723,-0.48364 0.66381,6.56557 -0.79259,6.07586zm6.10305,6.07586c-0.928,0.48971 -3.05352,0.24789 -4.51124,-1.69881c-1.06342,-1.69881 -0.92933,-3.40248 -0.13542,-3.88855c1.06342,-0.60759 2.79065,0.24303 3.98285,1.58215c1.06342,1.09122 1.59314,3.27975 0.66381,4.00521zm-1.7259,-7.4089c-1.59314,-0.97335 -1.85733,-3.16188 -0.66381,-4.98463c1.32762,-1.69881 3.58855,-2.43034 5.18036,-1.45699c1.59181,0.97214 1.85601,3.16188 0.66381,4.98463c-1.19884,1.82276 -3.58456,2.43034 -5.18168,1.45699l0.00133,0zm6.77217,10.8126c-1.99142,0.12395 -3.84743,-1.45699 -3.84743,-1.94063c0,-0.73153 2.3844,-1.33912 3.98285,-1.33912c1.59181,-0.12395 3.71201,0.48364 3.71201,1.21517c0,0.48364 -1.99142,2.06579 -3.84743,2.06579l0,-0.00122zm3.98285,-7.77467c0,1.82276 -1.7259,3.27975 -3.84743,3.27975c-2.12684,0 -3.98285,-1.45821 -3.98285,-3.28096c0,-1.82276 1.72059,-3.27853 3.84743,-3.27853c2.25695,0 3.98285,1.45699 3.98285,3.27975zm-2.38971,-4.61887c-1.32762,-1.69881 -0.92933,-4.01007 0.66381,-4.98463c1.59048,-0.96728 3.98285,-0.35969 5.18036,1.46307c1.1922,1.82276 0.928,4.00521 -0.66381,4.97856c-1.59845,0.85062 -3.98285,0.24303 -5.18168,-1.45699l0.00133,0zm7.9657,7.29103c-1.72856,2.18731 -3.98285,2.18731 -4.77676,1.57972c-0.93464,-0.7291 -0.27083,-3.15945 1.05678,-4.4937c1.32762,-1.46307 2.92607,-2.43034 3.85407,-1.70489c0.66381,0.85062 1.06209,3.16188 -0.13542,4.61887l0.00133,0zm1.19751,-4.49613c-1.46303,0.60759 -2.65523,-6.44041 -0.79922,-6.07586c2.92075,1.45821 2.38971,4.86069 0.79922,6.07586z"/>
 </g>
</svg>